<?xml version="1.0" encoding="UTF-8"?>
<svg width="96" height="96" fill="none" version="1.1" viewBox="0 0 96 96" xmlns="http://www.w3.org/2000/svg">
 <g id="Close" transform="translate(1.7954 -3.1465)">
  <g id="Bg">
   <path id="Close Square" d="m77.059 13.962-31.312-8.3899c-12.243-3.2805-22.78 3.1085-26.206 15.893l-7.907 29.51c-3.416 12.748 2.5161 23.547 14.759 26.827l31.312 8.39c12.243 3.2804 22.743-3.1146 26.159-15.863l7.9071-29.51c3.4256-12.785-2.4694-23.577-14.712-26.857z" fill="url(#paint0_linear_826_911)"/>
   <g filter="url(#filter0_f_826_911)">
    <path d="m67.67 25.782-19.715-5.2826c-7.7085-2.0655-14.343 1.9572-16.5 10.007l-4.9785 18.58c-2.1508 8.0269 1.5842 14.826 9.2928 16.891l19.715 5.2825c7.7086 2.0655 14.32-1.961 16.471-9.9879l4.9785-18.58c2.1569-8.0497-1.5547-14.845-9.2633-16.91z" fill="#e31352" fill-opacity=".5"/>
   </g>
  </g>
  <g id="Icon">
   <g filter="url(#filter1_b_826_911)">
    <mask id="path-3-outside-1_826_911" x="0.499878" y="22.1377" width="77" height="77" fill="#000000" maskUnits="userSpaceOnUse">
     <rect x=".49988" y="22.138" width="77" height="77" fill="#fff"/>
     <path d="m55.116 23.138h-32.416c-12.675 0-21.2 8.8986-21.2 22.134v30.55c0 13.198 8.5247 22.093 21.2 22.093h32.416c12.675 0 21.162-8.8948 21.162-22.093v-30.55c0-13.236-8.4873-22.134-21.162-22.134z"/>
    </mask>
    <path d="m55.116 23.138h-32.416c-12.675 0-21.2 8.8986-21.2 22.134v30.55c0 13.198 8.5247 22.093 21.2 22.093h32.416c12.675 0 21.162-8.8948 21.162-22.093v-30.55c0-13.236-8.4873-22.134-21.162-22.134z" fill="#ff749f" fill-opacity=".35"/>
    <path d="m55.116 22.138c-0.5523 0-1 0.4477-1 1s0.4477 1 1 1zm0 0h-32.416v2h32.416zm-32.416 0c-6.5802 0-12.151 2.3154-16.075 6.412-3.9203 4.0929-6.1245 9.8876-6.1245 16.722h2c0-6.401 2.0581-11.673 5.5689-15.339 3.5072-3.6616 8.5361-5.7955 14.631-5.7955zm-22.2 23.134v30.55h2v-30.55zm0 30.55c0 6.8167 2.2047 12.601 6.125 16.688 3.9238 4.0906 9.4945 6.4049 16.074 6.4049v-2c-6.0948 0-11.124-2.1331-14.631-5.7894-3.5107-3.66-5.5684-8.922-5.5684-15.304zm22.2 23.093h32.416v-2h-32.416zm32.416 0c6.5802 0 12.142-2.3145 16.057-6.4058 3.9108-4.0875 6.1054-9.8719 6.1054-16.687h-2c0 6.3829-2.0491 11.645-5.5505 15.305-3.4977 3.6556-8.517 5.7885-14.612 5.7885zm22.162-23.093v-30.55h-2v30.55zm0-30.55c0-6.8334-2.1941-12.628-6.1049-16.721-3.9148-4.0973-9.4768-6.4129-16.057-6.4129v2c6.0944 0 11.113 2.1337 14.611 5.7945 3.5015 3.6649 5.551 8.9374 5.551 15.34z" fill="url(#paint1_linear_826_911)" mask="url(#path-3-outside-1_826_911)"/>
   </g>
   <g id="Path" filter="url(#filter2_bd_826_911)">
    <path d="m50.141 67.15c1.2712 1.2712 1.2712 3.3276 0 4.5951-0.6357 0.6356-1.4582 0.9758-2.3182 0.9758-0.8225 0-1.6451-0.2991-2.2807-0.9758l-6.6552-6.6141-6.6552 6.6141c-0.6356 0.6356-1.4582 0.9758-2.3181 0.9758-0.8226 0-1.6825-0.3402-2.3181-0.9758-1.2713-1.2675-1.2713-3.3239 0-4.6325l6.6552-6.6179-6.6552-6.6589c-1.2713-1.2675-1.2713-3.3613 0-4.6325 1.2712-1.275 3.3276-1.275 4.6362 0l6.6552 6.6515 6.6178-6.6515c1.3087-1.275 3.365-1.275 4.6363 0 1.2712 1.2712 1.2712 3.365 0 4.6325l-6.6553 6.6589z" fill="url(#paint2_linear_826_911)"/>
    <path d="m50 71.603-2e-4 2e-4c-0.5989 0.599-1.3709 0.9173-2.1767 0.9173-0.7728 0-1.5407-0.2801-2.1349-0.9128h1e-4l-0.0049-0.0049-6.6552-6.6141-0.141-0.1401-0.141 0.1401-6.6552 6.6141-4e-4 4e-4c-0.599 0.599-1.371 0.9173-2.1767 0.9173-0.7696 0-1.5786-0.3192-2.1767-0.9173l-2e-4 -2e-4c-1.1913-1.1877-1.1948-3.1179 1e-3 -4.3502l6.654-6.6166 0.1422-0.1414-0.1418-0.1418-6.6552-6.659-2e-4 -3e-4c-1.1928-1.1892-1.1931-3.1562 2e-4 -4.3494l2e-4 -2e-4c1.1916-1.1952 3.122-1.1984 4.3541 0.0012l6.6543 6.6505 0.1418 0.1417 0.1414-0.1421 6.6156-6.6493c4e-4 -3e-4 7e-4 -6e-4 0.0011-1e-3 1.2321-1.1994 3.1623-1.1961 4.3539-1e-3l2e-4 2e-4c1.1933 1.1932 1.193 3.1602 2e-4 4.3494l-2e-4 3e-4 -6.6552 6.659-0.1414 0.1414 6.7966 6.7966c1.1933 1.1932 1.193 3.1228 2e-4 4.312z" stroke="url(#paint3_linear_826_911)" stroke-width=".4"/>
   </g>
  </g>
 </g>
 <defs>
  <filter id="filter0_f_826_911" x="8.8749" y="2.9639" width="85.665" height="85.833" color-interpolation-filters="sRGB" filterUnits="userSpaceOnUse">
   <feFlood flood-opacity="0" result="BackgroundImageFix"/>
   <feBlend in="SourceGraphic" in2="BackgroundImageFix" result="shape"/>
   <feGaussianBlur result="effect1_foregroundBlur_826_911" stdDeviation="8.5"/>
  </filter>
  <filter id="filter1_b_826_911" x="-23.5" y="-1.8623" width="124.78" height="124.78" color-interpolation-filters="sRGB" filterUnits="userSpaceOnUse">
   <feFlood flood-opacity="0" result="BackgroundImageFix"/>
   <feGaussianBlur in="BackgroundImageFix" stdDeviation="12"/>
   <feComposite in2="SourceAlpha" operator="in" result="effect1_backgroundBlur_826_911"/>
   <feBlend in="SourceGraphic" in2="effect1_backgroundBlur_826_911" result="shape"/>
  </filter>
  <filter id="filter2_bd_826_911" x="11.642" y="33.247" width="54.452" height="54.474" color-interpolation-filters="sRGB" filterUnits="userSpaceOnUse">
   <feFlood flood-opacity="0" result="BackgroundImageFix"/>
   <feGaussianBlur in="BackgroundImageFix" stdDeviation="7.5"/>
   <feComposite in2="SourceAlpha" operator="in" result="effect1_backgroundBlur_826_911"/>
   <feColorMatrix in="SourceAlpha" result="hardAlpha" values="0 0 0 0 0 0 0 0 0 0 0 0 0 0 0 0 0 0 127 0"/>
   <feOffset dx="5" dy="5"/>
   <feGaussianBlur stdDeviation="5"/>
   <feColorMatrix values="0 0 0 0 1 0 0 0 0 0.321569 0 0 0 0 0.54902 0 0 0 0.5 0"/>
   <feBlend in2="effect1_backgroundBlur_826_911" result="effect2_dropShadow_826_911"/>
   <feBlend in="SourceGraphic" in2="effect2_dropShadow_826_911" result="shape"/>
  </filter>
  <linearGradient id="paint0_linear_826_911" x1="55.73" x2="-16.006" y1="52.138" y2="65.992" gradientUnits="userSpaceOnUse">
   <stop stop-color="#FF759F" offset="0"/>
   <stop stop-color="#FF196E" offset="1"/>
  </linearGradient>
  <linearGradient id="paint1_linear_826_911" x1="13.403" x2="71.131" y1="31.849" y2="94.014" gradientUnits="userSpaceOnUse">
   <stop stop-color="#fff" stop-opacity=".25" offset="0"/>
   <stop stop-color="#fff" stop-opacity="0" offset="1"/>
  </linearGradient>
  <linearGradient id="paint2_linear_826_911" x1="49.361" x2="22.123" y1="52.667" y2="53.554" gradientUnits="userSpaceOnUse">
   <stop stop-color="#fff" offset="0"/>
   <stop stop-color="#fff" stop-opacity=".2" offset="1"/>
  </linearGradient>
  <linearGradient id="paint3_linear_826_911" x1="30.535" x2="46.149" y1="51.098" y2="70.42" gradientUnits="userSpaceOnUse">
   <stop stop-color="#fff" stop-opacity=".25" offset="0"/>
   <stop stop-color="#fff" stop-opacity="0" offset="1"/>
  </linearGradient>
 </defs>
</svg>
