<?xml version="1.0" encoding="UTF-8"?>
<svg width="120" height="120" fill="none" version="1.1" viewBox="0 0 120 120" xmlns="http://www.w3.org/2000/svg">
 <g id="Danger" transform="translate(-1.1418 14.522)">
  <g id="Bg">
   <path d="m71.625 43.6-32.424-32.48c-3.4131-3.4833-9.0839-3.5806-12.609-0.1753-1.2287 1.1377-2.071 2.6213-2.4675 4.1859l-11.912 44.68c-0.6328 4.8228 2.8401 9.2602 7.7313 9.8575 0.9718 0.0953 1.9729 0.0566 2.932-0.1389l44.568-11.942c2.2509-0.7325 4.0847-2.291 5.1854-4.3935 1.099-2.1086 1.3012-4.5201 0.5731-6.7503-0.3204-0.9522-0.7833-1.8274-1.5776-2.8433z" fill="url(#paint0_linear_826_567)"/>
   <g filter="url(#filter0_f_826_567)">
    <path d="m59.008 46.41-18.589-18.622c-1.9568-1.997-5.2081-2.0529-7.229-0.1005-0.7045 0.6523-1.1874 1.5029-1.4147 2.3999l-6.8295 25.616c-0.3628 2.7651 1.6284 5.3091 4.4326 5.6516 0.5571 0.0546 1.1311 0.0325 1.681-0.0796l25.552-6.8467c1.2905-0.4199 2.3419-1.3135 2.9729-2.5189 0.6301-1.2089 0.746-2.5915 0.3286-3.8701-0.1837-0.5459-0.4491-1.0477-0.9045-1.6302z" fill="#e31352"/>
   </g>
  </g>
  <g id="Icon">
   <g id="Path" filter="url(#filter1_b_826_567)">
    <path d="m109.93 59.308-29.681-51.512c-3.1028-5.5028-10.166-7.5259-15.718-4.4467-1.9189 1.0116-3.4703 2.5855-4.491 4.4103l-29.885 51.912c-2.4088 5.8224 0.4491 12.539 6.3689 14.926 1.184 0.4451 2.4496 0.7323 3.7152 0.8092h59.77c3.062-0.1618 5.879-1.4971 7.962-3.7589 2.082-2.2699 3.143-5.2195 2.98-8.2542-0.082-1.2988-0.368-2.5491-1.021-4.0866z" fill="#ff749f" fill-opacity=".35"/>
    <path d="m110.39 59.113c-8e-3 -0.0186-0.017-0.0366-0.027-0.0541l-29.678-51.508c-4e-4 -6e-4 -7e-4 -0.0012-1e-3 -0.0018-3.2369-5.7383-10.598-7.8481-16.391-4.6392-2.0058 1.0586-3.6235 2.7015-4.6879 4.6033-5e-4 9.1e-4 -1e-3 0.00183-0.0015 0.00274l-29.882 51.907c-0.0109 0.0188-0.0204 0.0383-0.0287 0.0583-2.517 6.0839 0.4711 13.092 6.6439 15.581v1e-4l0.0111 0.0042c1.2264 0.461 2.541 0.7601 3.8608 0.8403l0.0063 3e-4c8e-3 4e-4 0.016 6e-4 0.024 6e-4h59.77c9e-3 0 0.018-2e-4 0.027-7e-4 3.193-0.1688 6.133-1.5626 8.302-3.9195l1e-3 -7e-4c2.172-2.3679 3.282-5.4487 3.111-8.619v-0.0045c-0.086-1.3605-0.386-2.6661-1.06-4.2508z" stroke="url(#paint1_linear_826_567)" stroke-linecap="round" stroke-linejoin="round"/>
   </g>
   <g id="Union" filter="url(#filter2_bd_826_567)">
    <mask id="path-5-inside-1_826_567" fill="#ffffff">
     <path d="m70.125 45.31c1.9597 0 3.5519-1.6225 3.5519-3.5647v-11.447c0-1.9462-1.5922-3.5202-3.5519-3.5202s-3.5927 1.574-3.5927 3.5202v11.447c0 1.9422 1.633 3.5647 3.5927 3.5647zm-3.5927 10.275c0 1.9381 1.633 3.5606 3.5927 3.5606s3.5519-1.6225 3.5519-3.6051c0-1.9381-1.5922-3.5202-3.5519-3.5202s-3.5927 1.6185-3.5927 3.5647z" clip-rule="evenodd" fill-rule="evenodd"/>
    </mask>
    <path d="m70.125 45.31c1.9597 0 3.5519-1.6225 3.5519-3.5647v-11.447c0-1.9462-1.5922-3.5202-3.5519-3.5202s-3.5927 1.574-3.5927 3.5202v11.447c0 1.9422 1.633 3.5647 3.5927 3.5647zm-3.5927 10.275c0 1.9381 1.633 3.5606 3.5927 3.5606s3.5519-1.6225 3.5519-3.6051c0-1.9381-1.5922-3.5202-3.5519-3.5202s-3.5927 1.6185-3.5927 3.5647z" clip-rule="evenodd" fill="url(#paint2_linear_826_567)" fill-rule="evenodd"/>
    <path d="m73.277 41.745c0 1.7244-1.4163 3.1647-3.1519 3.1647v0.8c2.1837 0 3.9519-1.8048 3.9519-3.9647zm0-11.447v11.447h0.8v-11.447zm-3.1519-3.1202c1.7425 0 3.1519 1.3986 3.1519 3.1202h0.8c0-2.1708-1.775-3.9202-3.9519-3.9202zm-3.1927 3.1202c0-1.7157 1.4443-3.1202 3.1927-3.1202v-0.8c-2.1709 0-3.9927 1.7435-3.9927 3.9202zm0 11.447v-11.447h-0.8v11.447zm3.1927 3.1647c-1.7415 0-3.1927-1.4462-3.1927-3.1647h-0.8c0 2.1659 1.8149 3.9647 3.9927 3.9647zm0 13.836c-1.7418 0-3.1927-1.4465-3.1927-3.1606h-0.8c0 2.1621 1.8152 3.9606 3.9927 3.9606zm3.1519-3.2051c0 1.7678-1.4192 3.2051-3.1519 3.2051v0.8c2.1866 0 3.9519-1.8077 3.9519-4.0051zm-3.1519-3.1202c1.7419 0 3.1519 1.4061 3.1519 3.1202h0.8c0-2.1621-1.7744-3.9202-3.9519-3.9202zm-3.1927 3.1647c0-1.7222 1.4509-3.1647 3.1927-3.1647v-0.8c-2.1775 0-3.9927 1.7945-3.9927 3.9647z" fill="url(#paint3_linear_826_567)" mask="url(#path-5-inside-1_826_567)"/>
   </g>
  </g>
 </g>
 <defs>
  <filter id="filter0_f_826_567" x="5.9031" y="7.2568" width="73.256" height="73.127" color-interpolation-filters="sRGB" filterUnits="userSpaceOnUse">
   <feFlood flood-opacity="0" result="BackgroundImageFix"/>
   <feBlend in="SourceGraphic" in2="BackgroundImageFix" result="shape"/>
   <feGaussianBlur result="effect1_foregroundBlur_826_567" stdDeviation="9.5"/>
  </filter>
  <filter id="filter1_b_826_567" x="4.2988" y="-23.092" width="131.67" height="123.5" color-interpolation-filters="sRGB" filterUnits="userSpaceOnUse">
   <feFlood flood-opacity="0" result="BackgroundImageFix"/>
   <feGaussianBlur in="BackgroundImageFix" stdDeviation="12"/>
   <feComposite in2="SourceAlpha" operator="in" result="effect1_backgroundBlur_826_567"/>
   <feBlend in="SourceGraphic" in2="effect1_backgroundBlur_826_567" result="shape"/>
  </filter>
  <filter id="filter2_bd_826_567" x="51.532" y="11.778" width="37.145" height="62.368" color-interpolation-filters="sRGB" filterUnits="userSpaceOnUse">
   <feFlood flood-opacity="0" result="BackgroundImageFix"/>
   <feGaussianBlur in="BackgroundImageFix" stdDeviation="7.5"/>
   <feComposite in2="SourceAlpha" operator="in" result="effect1_backgroundBlur_826_567"/>
   <feColorMatrix in="SourceAlpha" result="hardAlpha" values="0 0 0 0 0 0 0 0 0 0 0 0 0 0 0 0 0 0 127 0"/>
   <feOffset dx="5" dy="5"/>
   <feGaussianBlur stdDeviation="5"/>
   <feColorMatrix values="0 0 0 0 1 0 0 0 0 0.376471 0 0 0 0 0.580392 0 0 0 1 0"/>
   <feBlend in2="effect1_backgroundBlur_826_567" result="effect2_dropShadow_826_567"/>
   <feBlend in="SourceGraphic" in2="effect2_dropShadow_826_567" result="shape"/>
  </filter>
  <linearGradient id="paint0_linear_826_567" x1="43.291" x2="-.50728" y1="38.622" y2="80.011" gradientUnits="userSpaceOnUse">
   <stop stop-color="#FF759F" offset="0"/>
   <stop stop-color="#FF196E" offset="1"/>
  </linearGradient>
  <linearGradient id="paint1_linear_826_567" x1="42.3" x2="87.917" y1="10.471" y2="73.246" gradientUnits="userSpaceOnUse">
   <stop stop-color="#fff" stop-opacity=".25" offset="0"/>
   <stop stop-color="#fff" stop-opacity="0" offset="1"/>
  </linearGradient>
  <linearGradient id="paint2_linear_826_567" x1="70.105" x2="63.545" y1="28.604" y2="27.997" gradientUnits="userSpaceOnUse">
   <stop stop-color="#fff" stop-opacity=".75" offset="0"/>
   <stop stop-color="#fff" stop-opacity=".2" offset="1"/>
  </linearGradient>
  <linearGradient id="paint3_linear_826_567" x1="67.669" x2="78.415" y1="30.549" y2="33.487" gradientUnits="userSpaceOnUse">
   <stop stop-color="#fff" stop-opacity=".25" offset="0"/>
   <stop stop-color="#fff" stop-opacity="0" offset="1"/>
  </linearGradient>
 </defs>
</svg>
