<?xml version="1.0" encoding="UTF-8"?>
<svg width="120" height="120" fill="none" version="1.1" viewBox="0 0 120 120" xmlns="http://www.w3.org/2000/svg">
 <g id="Folder" transform="translate(11.313 5.6563)">
  <g id="Bg">
   <path id="Path" d="m89.079 12.354-28.73-7.6983c-10.421-2.7924-18.124 1.6837-20.926 12.139l-9.4886 35.412c-2.8474 10.627 1.6219 18.218 12.043 21.01l28.73 7.6983c10.589 2.8374 18.084-1.5476 20.931-12.174l9.4888-35.412c2.801-10.456-1.4599-18.137-12.049-20.975z" fill="url(#paint0_linear_826_217)"/>
   <g filter="url(#filter0_f_826_217)" opacity=".5">
    <path d="m81.631 21.976-19.646-5.2641c-7.1261-1.9094-12.393 1.1513-14.309 8.3009l-6.4883 24.215c-1.9471 7.2667 1.1091 12.457 8.2352 14.367l19.646 5.2642c7.2409 1.9402 12.366-1.0583 14.313-8.325l6.4883-24.215c1.9157-7.1495-0.9981-12.402-8.2391-14.343z" fill="#f86652"/>
   </g>
  </g>
  <g id="Icon">
   <g id="Union" filter="url(#filter1_b_826_217)">
    <mask id="path-3-outside-1_826_217" x="0.435547" y="11.0972" width="84" height="84" fill="#000000" maskUnits="userSpaceOnUse">
     <rect x=".43555" y="11.097" width="84" height="84" fill="#fff"/>
     <path d="m1.4357 52.721v16.66c-8e-4 1.8083 0.1449 3.6138 0.43568 5.3987 0.45729 3.1543 1.5437 6.1852 3.195 8.9133 0.75222 1.3167 1.667 2.534 2.723 3.6233 4.8535 4.4388 11.288 6.749 17.863 6.4132h33.184c6.5642 0.3383 12.989-1.973 17.827-6.4132 1.0687-1.0872 1.9958-2.3046 2.7593-3.6233 1.6611-2.7301 2.7712-5.758 3.2676-8.9133 0.2607-1.7879 0.3942-3.592 0.3994-5.3987v-21.45c0.1241-4.1069-0.4781-8.2035-1.779-12.102-0.6612-1.8967-1.6708-3.6538-2.9772-5.1813-0.4107-0.4824-0.86-0.9308-1.3434-1.3407-4.1971-3.301-9.4852-4.9049-14.813-4.4929h-12.241c-2.898-0.0564-5.6316-1.3771-7.4738-3.6216l-3.9575-5.4712c-1.8654-2.3316-4.7077-3.6696-7.697-3.6233h-8.4958c-15.249 0-20.876 8.9496-20.876 24.167v16.45c-2e-5 0.0018 4e-5 0.0036 1.8e-4 0.0053z" clip-rule="evenodd" fill-rule="evenodd"/>
    </mask>
    <path d="m1.4357 52.721v16.66c-8e-4 1.8083 0.1449 3.6138 0.43568 5.3987 0.45729 3.1543 1.5437 6.1852 3.195 8.9133 0.75222 1.3167 1.667 2.534 2.723 3.6233 4.8535 4.4388 11.288 6.749 17.863 6.4132h33.184c6.5642 0.3383 12.989-1.973 17.827-6.4132 1.0687-1.0872 1.9958-2.3046 2.7593-3.6233 1.6611-2.7301 2.7712-5.758 3.2676-8.9133 0.2607-1.7879 0.3942-3.592 0.3994-5.3987v-21.45c0.1241-4.1069-0.4781-8.2035-1.779-12.102-0.6612-1.8967-1.6708-3.6538-2.9772-5.1813-0.4107-0.4824-0.86-0.9308-1.3434-1.3407-4.1971-3.301-9.4852-4.9049-14.813-4.4929h-12.241c-2.898-0.0564-5.6316-1.3771-7.4738-3.6216l-3.9575-5.4712c-1.8654-2.3316-4.7077-3.6696-7.697-3.6233h-8.4958c-15.249 0-20.876 8.9496-20.876 24.167v16.45c-2e-5 0.0018 4e-5 0.0036 1.8e-4 0.0053z" clip-rule="evenodd" fill="#ffac95" fill-opacity=".4" fill-rule="evenodd"/>
    <path d="m1.4357 52.721h1c0-0.0256-9.9e-4 -0.0513-0.00297-0.0769zm0 16.66 1 4e-4v-4e-4zm0.43568 5.3987 0.98965-0.1435c-8.3e-4 -0.0058-0.00172-0.0116-0.00266-0.0173zm3.195 8.9133 0.86829-0.4961c-0.00417-0.0073-0.00844-0.0145-0.0128-0.0217zm2.723 3.6233-0.71802 0.696c0.01396 0.0144 0.02835 0.0284 0.04315 0.0419zm17.863 6.4132v-1c-0.017 0-0.034 5e-4 -0.051 0.0013zm33.184 0 0.0515-0.9986c-0.0171-9e-4 -0.0343-0.0014-0.0515-0.0014zm17.827-6.4132 0.6762 0.7367c0.0126-0.0116 0.0249-0.0235 0.0369-0.0357zm2.7593-3.6233-0.8543-0.5198c-0.0038 0.0062-0.0075 0.0124-0.0111 0.0187zm3.2676-8.9133 0.9879 0.1554 0.0017-0.0112zm0.3994-5.3987 1 0.0028v-0.0028zm0-21.45-0.9995-0.0302c-4e-4 0.0101-5e-4 0.0201-5e-4 0.0302zm-1.779-12.102 0.9486-0.3166-0.0044-0.0126zm-2.9772-5.1813-0.7614 0.6482 0.0014 0.0017zm-1.3434-1.3407 0.6468-0.7627c-0.0094-0.0079-0.0189-0.0157-0.0286-0.0233zm-14.813-4.4929v1c0.0257 0 0.0514-9e-4 0.0771-0.0029zm-12.241 0-0.0195 0.9999c0.0065 1e-4 0.013 1e-4 0.0195 1e-4zm-7.4738-3.6216-0.8103 0.5861c0.0119 0.0165 0.0244 0.0326 0.0373 0.0484zm-3.9575-5.4712 0.8103-0.586c-0.0095-0.0132-0.0193-0.026-0.0294-0.0387zm-7.697-3.6233v1c0.0051 0 0.0103 0 0.0155-1e-4zm-29.372 40.617 1 0.0105v-0.0105zm-0.99982 0.0053v16.66h2v-16.66zm1e-6 16.66c-8.19e-4 1.8624 0.14924 3.7217 0.44869 5.56l1.974-0.3216c-0.28209-1.7316-0.42344-3.4832-0.42267-5.2375zm0.44603 5.5426c0.47652 3.287 1.6086 6.4451 3.3292 9.2877l1.711-1.0356c-1.582-2.6137-2.6228-5.5172-3.0608-8.539zm3.3164 9.2659c0.79377 1.3894 1.7591 2.6739 2.8733 3.8233l1.436-1.392c-0.99774-1.0293-1.8621-2.1794-2.5727-3.4234zm2.9164 3.8652c5.051 4.6195 11.747 7.0235 18.589 6.674l-0.102-1.9974c-6.3079 0.3222-12.481-1.8943-17.137-6.1524zm18.538 6.6753h33.184v-2h-33.184zm33.133-0.0013c6.8317 0.3521 13.518-2.0534 18.554-6.6752l-1.3524-1.4735c-4.6402 4.2588-10.802 6.4758-17.099 6.1514zm18.591-6.7109c1.1277-1.1472 2.1059-2.4317 2.9116-3.8233l-1.7308-1.0021c-0.7214 1.2459-1.5973 2.3961-2.6071 3.4234zm2.9005-3.8045c1.729-2.8416 2.8844-5.9933 3.4012-9.2777l-1.9757-0.3109c-0.4762 3.0263-1.5408 5.9304-3.1341 8.549zm3.4029-9.2889c0.2675-1.8347 0.4044-3.686 0.4098-5.5401l-2-0.0057c-0.0051 1.7594-0.1351 3.5162-0.3889 5.2573zm0.4098-5.5429v-21.45h-2v21.45zm-5e-4 -21.42c0.1277-4.2246-0.4918-8.4386-1.83-12.449l-1.8971 0.6331c1.2636 3.7867 1.8486 7.7659 1.7281 11.755zm-1.8343-12.461c-0.7021-2.0142-1.7743-3.8801-3.1614-5.5021l-1.52 1.2999c1.2256 1.433 2.1727 3.0814 2.7929 4.8605zm-3.16-5.5004c-0.4458-0.5236-0.9334-1.0102-1.458-1.4551l-1.2935 1.5254c0.4421 0.375 0.8531 0.785 1.2287 1.2262zm-1.4866-1.4784c-4.3943-3.4562-9.9307-5.1353-15.508-4.7039l0.1543 1.9941c5.078-0.3928 10.118 1.136 14.118 4.2819zm-15.431-4.7069h-12.241v2h12.241zm-12.222 2e-4c-2.6064-0.0507-5.0643-1.2386-6.7204-3.2562l-1.5459 1.2689c2.0284 2.4712 5.0376 3.9248 8.2273 3.987zm-6.6831-3.2079-3.9574-5.4711-1.6205 1.1721 3.9574 5.4712zm-3.9868-5.5098c-2.0589-2.5734-5.1953-4.0495-8.4934-3.9984l0.031 1.9997c2.6806-0.0415 5.2287 1.1583 6.9007 3.2481zm-8.4779-3.9986h-8.4958v2h8.4958zm-8.4958 0c-7.8259 0-13.379 2.3057-16.937 6.7522-3.5214 4.4-4.9391 10.715-4.9391 18.415h2c0-7.5177 1.396-13.286 4.5006-17.166 3.0674-3.8327 7.9527-6.0019 15.376-6.0019zm-21.876 25.167v16.45h2v-16.45zm5.5e-5 16.439c-3.27e-4 0.0312 7.24e-4 0.0621 0.003086 0.0928l1.9941-0.1539c0.00209 0.0271 0.00303 0.0545 0.00274 0.0821z" fill="url(#paint1_linear_826_217)" mask="url(#path-3-outside-1_826_217)"/>
   </g>
   <g filter="url(#filter2_bd_826_217)">
    <path d="m62.911 75.782h-41.099c-1.8648 0-3.3766-1.5086-3.3766-3.3697 0-1.861 1.5118-3.3696 3.3766-3.3696h41.426c1.0056 0.0114 1.9472 0.4946 2.5415 1.3044 0.5166 0.6025 0.7771 1.3826 0.7261 2.1739-0.0283 0.9004-0.4166 1.752-1.0783 2.3647s-1.5417 0.9355-2.4435 0.8963z" fill="url(#paint2_linear_826_217)"/>
    <path d="m65.618 70.465 0.0045 0.0061 0.0049 0.0057c0.4827 0.563 0.7261 1.2917 0.6784 2.031h-1e-4l-2e-4 0.0066c-0.0266 0.8468-0.3918 1.6478-1.0143 2.2242s-1.4504 0.8801-2.2989 0.8432v-2e-4h-41.181c-1.7548 0-3.1766-1.4195-3.1766-3.1697 0-1.7501 1.4218-3.1696 3.1766-3.1696h41.425c0.9425 0.011 1.8247 0.464 2.3814 1.2227z" stroke="url(#paint3_linear_826_217)" stroke-width=".4"/>
   </g>
  </g>
 </g>
 <defs>
  <filter id="filter0_f_826_217" x="25.612" y="1.1555" width="79.832" height="83.28" color-interpolation-filters="sRGB" filterUnits="userSpaceOnUse">
   <feFlood flood-opacity="0" result="BackgroundImageFix"/>
   <feBlend in="SourceGraphic" in2="BackgroundImageFix" result="shape"/>
   <feGaussianBlur result="effect1_foregroundBlur_826_217" stdDeviation="7.5"/>
  </filter>
  <filter id="filter1_b_826_217" x="-14.564" y="-3.9028" width="113.67" height="113.66" color-interpolation-filters="sRGB" filterUnits="userSpaceOnUse">
   <feFlood flood-opacity="0" result="BackgroundImageFix"/>
   <feGaussianBlur in="BackgroundImageFix" stdDeviation="7.5"/>
   <feComposite in2="SourceAlpha" operator="in" result="effect1_backgroundBlur_826_217"/>
   <feBlend in="SourceGraphic" in2="effect1_backgroundBlur_826_217" result="shape"/>
  </filter>
  <filter id="filter2_bd_826_217" x="3.4356" y="54.042" width="78.077" height="36.742" color-interpolation-filters="sRGB" filterUnits="userSpaceOnUse">
   <feFlood flood-opacity="0" result="BackgroundImageFix"/>
   <feGaussianBlur in="BackgroundImageFix" stdDeviation="7.5"/>
   <feComposite in2="SourceAlpha" operator="in" result="effect1_backgroundBlur_826_217"/>
   <feColorMatrix in="SourceAlpha" result="hardAlpha" values="0 0 0 0 0 0 0 0 0 0 0 0 0 0 0 0 0 0 127 0"/>
   <feOffset dx="5" dy="5"/>
   <feGaussianBlur stdDeviation="5"/>
   <feColorMatrix values="0 0 0 0 0.976471 0 0 0 0 0.435294 0 0 0 0 0.352941 0 0 0 0.5 0"/>
   <feBlend in2="effect1_backgroundBlur_826_217" result="effect2_dropShadow_826_217"/>
   <feBlend in="SourceGraphic" in2="effect2_dropShadow_826_217" result="shape"/>
  </filter>
  <linearGradient id="paint0_linear_826_217" x1="45.474" x2="72.902" y1="20.749" y2="118.86" gradientUnits="userSpaceOnUse">
   <stop stop-color="#FFA78F" offset="0"/>
   <stop stop-color="#F23E2C" offset="1"/>
  </linearGradient>
  <linearGradient id="paint1_linear_826_217" x1="14.436" x2="66.529" y1="21.611" y2="86.134" gradientUnits="userSpaceOnUse">
   <stop stop-color="#fff" stop-opacity=".25" offset="0"/>
   <stop stop-color="#fff" stop-opacity="0" offset="1"/>
  </linearGradient>
  <linearGradient id="paint2_linear_826_217" x1="63.104" x2="12.243" y1="70.26" y2="82.084" gradientUnits="userSpaceOnUse">
   <stop stop-color="#fff" offset="0"/>
   <stop stop-color="#fff" stop-opacity=".2" offset="1"/>
  </linearGradient>
  <linearGradient id="paint3_linear_826_217" x1="26.088" x2="27.072" y1="69.828" y2="78.516" gradientUnits="userSpaceOnUse">
   <stop stop-color="#fff" stop-opacity=".25" offset="0"/>
   <stop stop-color="#fff" stop-opacity="0" offset="1"/>
  </linearGradient>
 </defs>
</svg>
