<?xml version="1.0" encoding="UTF-8"?>
<svg width="96" height="96" fill="none" version="1.1" viewBox="0 0 96 96" xmlns="http://www.w3.org/2000/svg">
 <g id="Bg" transform="translate(-4.4774 .27478)">
  <path d="m53.202 54.364c-1.3822-2.8883-1.7509-5.1691-0.8241-8.6279l0.3151-1.176c1.2077-4.5072 0.9484-7.6891-0.5288-11.198-2.2677-5.4413-7.3912-9.7275-13.12-11.262l-0.2436-0.0653c-5.6083-1.5027-11.972-0.4283-16.667 2.9511-3.1722 2.3249-5.1416 5.0435-6.3827 9.6755l-0.3151 1.176c-0.9268 3.4587-2.3263 5.2658-5.0278 7.0599-1.9883 1.3222-3.0715 3.4161-3.7166 5.8237-0.64584 2.4103-0.46647 4.9049 0.62384 7.1859 1.4759 2.7796 4.0214 4.9837 6.9442 6.0315 4.195 1.6532 8.4726 2.9985 12.863 4.1749 4.3876 1.1756 8.7982 2.0245 13.227 2.8158 3.0523 0.5533 6.3588-0.0828 9.0268-1.752 2.082-1.431 3.4874-3.501 4.1332-5.9113 0.6451-2.4075 0.7539-4.7625-0.3069-6.9018z" fill="url(#paint0_linear_826_1251)"/>
  <path d="m31.69 71.188c-1.298-0.6629-9.6872-2.9108-11.143-2.9857-1.2498-0.0436-2.692 0.2478-3.0636 1.6346-0.2861 1.3414 0.1756 2.7166 1.0501 3.7447l-0.0035 2e-3c1.0979 1.4536 2.5422 2.5778 4.1812 3.2816 0.8753 0.3683 1.8019 0.6106 2.7754 0.7437 1.7686 0.2093 3.5815-0.0422 5.2591-0.7521l-2e-3 -0.0035c1.2714-0.4531 2.3588-1.4132 2.7818-2.7179 0.3716-1.3868-0.7317-2.3603-1.8358-2.9474z" fill="url(#paint1_linear_826_1251)"/>
  <g filter="url(#filter0_f_826_1251)" opacity=".5">
   <path d="m43.627 49.949c-0.5185-1.8048-0.5825-3.2655 0.0307-5.5538l0.2084-0.7781c0.799-2.9819 0.8317-5.0324 0.2984-7.2346-0.8161-3.4166-3.0539-5.9437-5.7163-6.6571l-0.1132-0.0303c-2.6065-0.6984-5.7007 0.3114-8.1113 2.7337-1.6305 1.6636-2.7055 3.5233-3.5267 6.5879l-0.2085 0.778c-0.6131 2.2883-1.3709 3.5289-2.7503 4.8251-1.0154 0.9553-1.6361 2.3663-2.0629 3.9591-0.4273 1.5947-0.4644 3.2034-0.0555 4.6287 0.5686 1.7298 1.6767 3.0337 3.022 3.5692 1.9237 0.8655 3.9018 1.5273 5.9422 2.0741 2.0392 0.5464 4.1054 0.8797 6.1832 1.1749 1.4316 0.2085 3.0432-0.3666 4.4005-1.5803 1.0654-1.0303 1.839-2.4417 2.2663-4.0364 0.4268-1.5928 0.5947-3.1252 0.193-4.4601z" fill="#0062ff"/>
  </g>
 </g>
 <g id="Icon" transform="translate(-4.4774 .27478)">
  <g filter="url(#filter1_b_826_1251)">
   <mask id="path-4-outside-1_826_1251" x="19.7176" y="-1.3051" width="84.4775" height="81.3885" fill="#000000" maskUnits="userSpaceOnUse">
    <rect x="19.718" y="-1.3051" width="84.478" height="81.388" fill="#fff"/>
    <path d="m94.031 39.153c-3.6372-2.7931-5.5861-5.4672-6.6439-10.485l-0.3596-1.7062c-1.3784-6.5391-3.7715-10.435-7.9317-13.958-6.4225-5.4801-15.744-7.634-24.055-5.882l-0.3535 0.0745c-8.1365 1.7151-15.567 7.2111-19.375 14.57-2.5449 5.0251-3.2983 9.7734-1.8818 16.494l0.3597 1.7062c1.0578 5.0179 0.4414 8.2327-1.8462 12.275-1.6825 2.9772-1.7091 6.3535-0.9728 9.8463 0.7371 3.4969 2.5828 6.5668 5.4535 8.7734 3.6863 2.5936 8.3656 3.7591 12.777 3.2032 6.4292-0.6071 12.764-1.6609 19.134-3.0035 6.3655-1.3419 12.549-3.1159 18.718-4.9754 4.2568-1.2713 8.0675-4.2265 10.393-8.0874 1.7317-3.1767 2.1852-6.7313 1.4481-10.228-0.7363-3.4928-2.1234-6.5711-4.8645-8.6159z"/>
   </mask>
   <path d="m94.031 39.153c-3.6372-2.7931-5.5861-5.4672-6.6439-10.485l-0.3596-1.7062c-1.3784-6.5391-3.7715-10.435-7.9317-13.958-6.4225-5.4801-15.744-7.634-24.055-5.882l-0.3535 0.0745c-8.1365 1.7151-15.567 7.2111-19.375 14.57-2.5449 5.0251-3.2983 9.7734-1.8818 16.494l0.3597 1.7062c1.0578 5.0179 0.4414 8.2327-1.8462 12.275-1.6825 2.9772-1.7091 6.3535-0.9728 9.8463 0.7371 3.4969 2.5828 6.5668 5.4535 8.7734 3.6863 2.5936 8.3656 3.7591 12.777 3.2032 6.4292-0.6071 12.764-1.6609 19.134-3.0035 6.3655-1.3419 12.549-3.1159 18.718-4.9754 4.2568-1.2713 8.0675-4.2265 10.393-8.0874 1.7317-3.1767 2.1852-6.7313 1.4481-10.228-0.7363-3.4928-2.1234-6.5711-4.8645-8.6159z" fill="#3ea0fe" fill-opacity=".35"/>
   <path d="m93.422 39.947c0.438 0.3363 1.0658 0.2539 1.4022-0.1841s0.2539-1.0658-0.1841-1.4022zm-14.326-26.943-0.6491 0.7607 0.0028 0.0024zm-43.783 8.7626-0.8882-0.4595-0.0039 0.0077zm-3.3683 30.475-0.8703-0.4926-3e-4 6e-4zm4.4807 18.62-0.6095 0.7928c0.0112 0.0086 0.0225 0.017 0.0341 0.0251zm12.777 3.2032-0.094-0.9956c-0.0103 1e-3 -0.0207 0.0021-0.031 0.0034zm37.852-7.9789-0.2862-0.9581-0.0024 7e-4zm10.393-8.0874 0.8566 0.516c0.0074-0.0123 0.0145-0.0247 0.0214-0.0374zm-2.8185-19.646c-0.4427-0.3302-1.0693-0.2391-1.3995 0.2036s-0.2391 1.0693 0.2036 1.3995zm0.0111 0.0084c-1.7647-1.3552-3.069-2.6427-4.0609-4.1619-0.9905-1.5168-1.7034-3.3167-2.2135-5.7364l-1.957 0.4125c0.5477 2.5983 1.3382 4.6445 2.4959 6.4174 1.1562 1.7707 2.6449 3.2167 4.5174 4.6547zm-6.2744-9.8983-0.3596-1.7062-1.957 0.4125 0.3596 1.7062zm-0.3596-1.7062c-1.4202-6.7372-3.9199-10.836-8.264-14.515l-1.2925 1.5262c3.9763 3.3677 6.2629 7.0607 7.5995 13.402zm-8.2612-14.513c-6.6728-5.6937-16.315-7.9116-24.91-6.0997l0.4125 1.957c8.0271-1.692 17.028 0.3979 23.2 5.6642zm-24.91-6.0997-0.3534 0.07449 0.4125 1.957 0.3534-0.0745zm-0.3534 0.07449c-8.4187 1.7746-16.106 7.4532-20.057 15.089l1.7763 0.919c3.664-7.0821 10.838-12.395 18.693-14.051zm-20.061 15.097c-2.6522 5.2371-3.4296 10.219-1.9682 17.152l1.957-0.4125c-1.3716-6.5073-0.6421-11.022 1.7954-15.836zm-1.9682 17.152 0.3597 1.7062 1.957-0.4125-0.3597-1.7062zm0.3597 1.7062c0.5116 2.4272 0.6057 4.3575 0.3223 6.1401-0.2833 1.7823-0.9542 3.4816-2.0603 5.4359l1.7406 0.9851c1.1815-2.0877 1.9626-4.0168 2.2949-6.1069 0.3322-2.0898 0.2056-4.2759-0.3405-6.8667zm-1.7383 11.577c-1.8512 3.2756-1.8419 6.9333-1.0807 10.545l1.957-0.4125c-0.7113-3.3744-0.649-6.4693 0.8649-9.1481zm-1.0807 10.545c0.7835 3.7171 2.7526 7.0001 5.8225 9.3599l1.2189-1.5856c-2.6713-2.0534-4.3937-4.9101-5.0844-8.1868zm5.8566 9.385c3.8884 2.7358 8.8171 3.9647 13.478 3.3774l-0.2501-1.9843c-4.1629 0.5246-8.5927-0.5774-12.077-3.0289zm13.447 3.3809c6.4756-0.6115 12.849-1.6722 19.246-3.0206l-0.4125-1.957c-6.3422 1.3368-12.639 2.3837-19.021 2.9864zm19.246-3.0206c6.4089-1.351 12.626-3.1353 18.8-4.9964l-0.5771-1.9149c-6.1638 1.8577-12.314 3.6216-18.636 4.9543zm18.798-4.9957c4.4974-1.3432 8.5106-4.4571 10.964-8.5296l-1.7132-1.032c-2.1983 3.6494-5.8065 6.4457-9.8229 7.6453zm10.985-8.567c1.8513-3.3963 2.3323-7.1952 1.5486-10.913l-1.957 0.4125c0.6906 3.276 0.2644 6.5862-1.3476 9.5433zm1.5486-10.913c-0.7612-3.6113-2.2292-6.9615-5.2451-9.2112l-1.1959 1.6031c2.4664 1.8398 3.7727 4.6462 4.484 8.0206z" fill="url(#paint2_linear_826_1251)" mask="url(#path-4-outside-1_826_1251)"/>
  </g>
  <g filter="url(#filter2_b_826_1251)">
   <mask id="path-6-outside-2_826_1251" x="56.4861" y="72.2825" width="28.3286" height="19.0617" fill="#000000" maskUnits="userSpaceOnUse">
    <rect x="56.486" y="72.283" width="28.329" height="19.062" fill="#fff"/>
    <path d="m77.458 74.581c-2.0873-0.0056-14.258 2.56-16.166 3.4076-1.6244 0.7543-3.2775 2.061-2.8534 4.073 0.5039 1.8986 1.9848 3.3558 3.7679 4.1021l-0.0031 0.0049c2.3441 1.145 4.9172 1.6449 7.4666 1.4815 1.3565-0.0968 2.6971-0.3878 4.0266-0.8488 2.3945-0.8787 4.5469-2.3748 6.2293-4.3685l-0.0048-0.0032c1.3302-1.4026 2.0969-3.3336 1.7915-5.274-0.4241-2.012-2.464-2.5402-4.2547-2.5746z"/>
   </mask>
   <path d="m77.458 74.581c-2.0873-0.0056-14.258 2.56-16.166 3.4076-1.6244 0.7543-3.2775 2.061-2.8534 4.073 0.5039 1.8986 1.9848 3.3558 3.7679 4.1021l-0.0031 0.0049c2.3441 1.145 4.9172 1.6449 7.4666 1.4815 1.3565-0.0968 2.6971-0.3878 4.0266-0.8488 2.3945-0.8787 4.5469-2.3748 6.2293-4.3685l-0.0048-0.0032c1.3302-1.4026 2.0969-3.3336 1.7915-5.274-0.4241-2.012-2.464-2.5402-4.2547-2.5746z" fill="#3ea0fe" fill-opacity=".35"/>
   <path d="m77.456 75.581c0.5523 0.0014 1.0012-0.4451 1.0026-0.9974 0.0015-0.5523-0.445-1.0012-0.9973-1.0026zm-16.163 2.4076-0.4061-0.9138c-5e-3 0.0022-0.0101 0.0045-0.0151 0.0068zm-2.8534 4.073-0.9785 0.2063c0.0035 0.0169 0.0075 0.0336 0.0119 0.0503zm3.7679 4.1021 0.8413 0.5405c0.1598-0.2487 0.2014-0.5553 0.1135-0.8376-0.0878-0.2823-0.296-0.5112-0.5687-0.6254zm-0.0031 0.0049-0.8414-0.5406c-0.1543 0.2402-0.1986 0.5349-0.1217 0.8099 0.0769 0.2749 0.2676 0.5039 0.5242 0.6292zm7.4666 1.4815 0.0639 0.998 0.0073-5e-4zm4.0266-0.8488 0.3276 0.9449c0.0057-2e-3 0.0113-4e-3 0.0169-0.0061zm6.2293-4.3685 0.7643 0.6449c0.1841-0.2182 0.2662-0.5047 0.2256-0.7873-0.0407-0.2826-0.2002-0.5344-0.4384-0.6918zm-0.0048-0.0032-0.7256-0.6881c-0.2034 0.2145-0.3015 0.508-0.2679 0.8017 0.0336 0.2938 0.1955 0.5576 0.4421 0.7206zm1.7915-5.274 0.9879-0.1554c-0.0027-0.017-0.0058-0.034-0.0094-0.0508zm-4.2354-3.5745c-0.5522-0.0106-1.0085 0.4285-1.0191 0.9806-0.0106 0.5522 0.4284 1.0085 0.9806 1.0191zm-0.0166-1e-4c-0.6263-0.0017-1.8703 0.1765-3.3112 0.4255-1.4796 0.2556-3.2687 0.6048-5.0481 0.9799-1.7795 0.3751-3.5573 0.7778-5.0142 1.1411-1.4188 0.3539-2.6289 0.693-3.2012 0.9473l0.8121 1.8277c0.3815-0.1695 1.4081-0.469 2.8731-0.8344 1.4269-0.3559 3.18-0.7532 4.9427-1.1247 1.7627-0.3716 3.5269-0.7157 4.9761-0.9661 1.4878-0.2571 2.548-0.3974 2.9654-0.3963zm-16.59 3.5006c-0.8764 0.407-1.8437 0.9982-2.5403 1.8297-0.724 0.8643-1.1566 1.9988-0.8704 3.3566l1.957-0.4125c-0.1379-0.6542 0.0439-1.1791 0.4466-1.6598 0.43-0.5133 1.1015-0.9527 1.8494-1.3zm-3.3988 5.2366c0.5981 2.2533 2.3356 3.9256 4.3484 4.768l0.7722-1.845c-1.5535-0.6501-2.7778-1.8924-3.1875-3.4361zm3.8932 3.305-0.0032 0.0048 1.6827 1.0811 0.0031-0.0049zm0.3993 1.4439c2.5006 1.2215 5.2471 1.7554 7.9694 1.581l-0.1278-1.9959c-2.3765 0.1522-4.7763-0.3136-6.9639-1.3822zm7.9767 1.5805c1.4528-0.1037 2.8794-0.4148 4.283-0.9014l-0.6552-1.8897c-1.2555 0.4353-2.5099 0.7062-3.7702 0.7962zm4.2999-0.9075c2.5572-0.9385 4.8543-2.5356 6.6491-4.6624l-1.5285-1.2899c-1.5702 1.8608-3.5778 3.2557-5.8096 4.0748zm6.4363-6.1415-0.0048-0.0032-1.1029 1.6684 0.0048 0.0032zm0.1693 1.5191c1.5015-1.5832 2.4162-3.8145 2.0538-6.1175l-1.9757 0.3109c0.2483 1.5777-0.3704 3.2085-1.5293 4.4304zm2.0444-6.1683c-0.2862-1.3578-1.14-2.2211-2.1512-2.7196-0.973-0.4797-2.0966-0.6301-3.0627-0.6487l-0.0385 1.9997c0.8246 0.0158 1.6162 0.1467 2.2169 0.4428 0.5624 0.2773 0.9406 0.6841 1.0785 1.3383z" fill="url(#paint3_linear_826_1251)" mask="url(#path-6-outside-2_826_1251)"/>
  </g>
  <g id="Path" filter="url(#filter3_bd_826_1251)">
   <path d="m68.371 17.771c-1.4482-0.325-2.9103 0.5207-3.3622 1.8903-0.152 0.7621-0.0311 1.5694 0.3997 2.2129s1.1052 1.0996 1.8957 1.2673l0.1043 0.0314c2.354 0.7074 4.0448 2.7906 4.2043 5.1921 0.0768 1.5652 1.4032 2.7716 2.9593 2.7251 1.5662-0.0801 2.7658-1.3718 2.7059-2.8952-0.3437-4.8435-3.758-8.9867-8.5063-10.304z" fill="url(#paint4_linear_826_1251)"/>
   <path d="m67.325 23.044 1e-4 -3e-4 0.0079 0.0023 0.1044 0.0314c2.3926 0.719 4.1129 2.8368 4.2753 5.2813l1e-4 0.0017c0.074 1.5097 1.3535 2.6744 2.8553 2.6301 1.5124-0.0779 2.6669-1.3241 2.6101-2.7898-0.3412-4.7999-3.7254-8.9071-8.4331-10.213l-0.0021-6e-4 -0.3973-0.1194c-1.3947-0.3112-2.8023 0.5027-3.24 1.819-0.1456 0.7381-0.0269 1.5151 0.386 2.1318 0.416 0.6214 1.0678 1.0626 1.8333 1.2251z" stroke="url(#paint5_linear_826_1251)" stroke-opacity=".5" stroke-width=".2"/>
  </g>
 </g>
 <defs>
  <filter id="filter0_f_826_1251" x="6.333" y="14.478" width="53.189" height="60.589" color-interpolation-filters="sRGB" filterUnits="userSpaceOnUse">
   <feFlood flood-opacity="0" result="BackgroundImageFix"/>
   <feBlend in="SourceGraphic" in2="BackgroundImageFix" result="shape"/>
   <feGaussianBlur result="effect1_foregroundBlur_826_1251" stdDeviation="7.5"/>
  </filter>
  <filter id="filter1_b_826_1251" x="14.512" y="-9.4741" width="100.72" height="99.674" color-interpolation-filters="sRGB" filterUnits="userSpaceOnUse">
   <feFlood flood-opacity="0" result="BackgroundImageFix"/>
   <feGaussianBlur in="BackgroundImageFix" stdDeviation="7.5"/>
   <feComposite in2="SourceAlpha" operator="in" result="effect1_backgroundBlur_826_1251"/>
   <feBlend in="SourceGraphic" in2="effect1_backgroundBlur_826_1251" result="shape"/>
  </filter>
  <filter id="filter2_b_826_1251" x="42.371" y="58.581" width="55.409" height="45.099" color-interpolation-filters="sRGB" filterUnits="userSpaceOnUse">
   <feFlood flood-opacity="0" result="BackgroundImageFix"/>
   <feGaussianBlur in="BackgroundImageFix" stdDeviation="7.5"/>
   <feComposite in2="SourceAlpha" operator="in" result="effect1_backgroundBlur_826_1251"/>
   <feBlend in="SourceGraphic" in2="effect1_backgroundBlur_826_1251" result="shape"/>
  </filter>
  <filter id="filter3_bd_826_1251" x="49.946" y="2.7012" width="42.334" height="43.39" color-interpolation-filters="sRGB" filterUnits="userSpaceOnUse">
   <feFlood flood-opacity="0" result="BackgroundImageFix"/>
   <feGaussianBlur in="BackgroundImageFix" stdDeviation="7.5"/>
   <feComposite in2="SourceAlpha" operator="in" result="effect1_backgroundBlur_826_1251"/>
   <feColorMatrix in="SourceAlpha" result="hardAlpha" values="0 0 0 0 0 0 0 0 0 0 0 0 0 0 0 0 0 0 127 0"/>
   <feOffset dx="5" dy="5"/>
   <feGaussianBlur stdDeviation="5"/>
   <feColorMatrix values="0 0 0 0 0.15375 0 0 0 0 0.522433 0 0 0 0 0.9 0 0 0 0.5 0"/>
   <feBlend in2="effect1_backgroundBlur_826_1251" result="effect2_dropShadow_826_1251"/>
   <feBlend in="SourceGraphic" in2="effect2_dropShadow_826_1251" result="shape"/>
  </filter>
  <linearGradient id="paint0_linear_826_1251" x1="62.523" x2="2.3483" y1="28.391" y2="57.486" gradientUnits="userSpaceOnUse">
   <stop stop-color="#39AFFD" offset="0"/>
   <stop stop-color="#477FFF" offset="1"/>
  </linearGradient>
  <linearGradient id="paint1_linear_826_1251" x1="34.264" x2="23.013" y1="71.642" y2="82.476" gradientUnits="userSpaceOnUse">
   <stop stop-color="#39AFFD" offset="0"/>
   <stop stop-color="#477FFF" offset="1"/>
  </linearGradient>
  <linearGradient id="paint2_linear_826_1251" x1="33.284" x2="84.602" y1="19.483" y2="63.9" gradientUnits="userSpaceOnUse">
   <stop stop-color="#fff" stop-opacity=".25" offset="0"/>
   <stop stop-color="#fff" stop-opacity="0" offset="1"/>
  </linearGradient>
  <linearGradient id="paint3_linear_826_1251" x1="61.656" x2="69.45" y1="78.964" y2="90.753" gradientUnits="userSpaceOnUse">
   <stop stop-color="#fff" stop-opacity=".25" offset="0"/>
   <stop stop-color="#fff" stop-opacity="0" offset="1"/>
  </linearGradient>
  <linearGradient id="paint4_linear_826_1251" x1="76.848" x2="72.981" y1="21.139" y2="32.918" gradientUnits="userSpaceOnUse">
   <stop stop-color="#fff" offset="0"/>
   <stop stop-color="#fff" stop-opacity=".2" offset="1"/>
  </linearGradient>
  <linearGradient id="paint5_linear_826_1251" x1="72.089" x2="74.769" y1="29.247" y2="20.191" gradientUnits="userSpaceOnUse">
   <stop stop-color="#fff" offset="0"/>
   <stop stop-color="#fff" stop-opacity="0" offset="1"/>
  </linearGradient>
 </defs>
</svg>
