<?xml version="1.0" encoding="UTF-8"?>
<svg width="120" height="120" fill="none" version="1.1" viewBox="0 0 120 120" xmlns="http://www.w3.org/2000/svg">
 <g id="Paper" transform="translate(7.1719 2.295)">
  <g id="Bg">
   <path id="Union" d="m8.5996 63.711v-40.188c1e-5 -10.032 8.0502-18.162 17.983-18.162h31.88c10.413 1e-5 18.904 8.5352 18.904 19.052v43.688c0 10.032-8.0501 18.162-17.983 18.162h-31.88c-10.413 0-18.904-8.5351-18.904-19.052z" clip-rule="evenodd" fill="url(#paint0_linear_826_1703)" fill-rule="evenodd"/>
   <g filter="url(#filter0_f_826_1703)" opacity=".5">
    <rect transform="rotate(-90 21.6 63.528)" x="21.6" y="63.528" width="42" height="36" rx="5" fill="#8237ff" fill-opacity=".5"/>
   </g>
  </g>
  <g id="Icon">
   <g id="Path" filter="url(#filter1_b_826_1703)">
    <path d="m41.696 23.737h29.739l20.965 22.551v40.188c0 10.032-8.0501 18.162-17.983 18.162h-31.88c-10.413 0-18.904-8.5349-18.904-19.052v-43.606c0-10.032 8.0902-18.243 18.063-18.243z" fill="#ba90ff" fill-opacity=".35"/>
    <path d="m71.802 23.397c-0.0946-0.1018-0.2272-0.1596-0.3662-0.1596h-29.739c-10.254 0-18.563 8.4408-18.563 18.743v43.606c0 10.79 8.7112 19.552 19.404 19.552h31.88c10.213 0 18.483-8.359 18.483-18.662v-40.188c0-0.1263-0.0478-0.2479-0.1338-0.3404z" stroke="url(#paint1_linear_826_1703)" stroke-linecap="round" stroke-linejoin="round"/>
   </g>
   <mask id="path-5-inside-1_826_1703" fill="#ffffff">
    <path d="m57.714 55.474h-13.537c-1.642 0-3.0037 1.3754-3.0037 3.0339 0 1.6584 1.3617 2.9933 3.0037 2.9933h13.537c1.6421 0 3.0038-1.3349 3.0038-2.9933 0-1.6585-1.3617-3.0339-3.0038-3.0339zm-13.537 26.252h21.788c1.642 0 3.0038-1.3753 3.0038-3.0338s-1.3618-2.9934-3.0038-2.9934h-21.788c-1.642 0-3.0038 1.3349-3.0038 2.9934s1.3618 3.0338 3.0038 3.0338z" clip-rule="evenodd" fill-rule="evenodd"/>
   </mask>
   <path d="m57.714 55.474h-13.537c-1.642 0-3.0037 1.3754-3.0037 3.0339 0 1.6584 1.3617 2.9933 3.0037 2.9933h13.537c1.6421 0 3.0038-1.3349 3.0038-2.9933 0-1.6585-1.3617-3.0339-3.0038-3.0339zm-13.537 26.252h21.788c1.642 0 3.0038-1.3753 3.0038-3.0338s-1.3618-2.9934-3.0038-2.9934h-21.788c-1.642 0-3.0038 1.3349-3.0038 2.9934s1.3618 3.0338 3.0038 3.0338z" clip-rule="evenodd" fill="url(#paint2_linear_826_1703)" fill-rule="evenodd"/>
   <path d="m44.177 55.874h13.537v-0.8h-13.537zm-2.6037 2.6339c0-1.4414 1.1863-2.6339 2.6037-2.6339v-0.8c-1.8667 0-3.4037 1.5582-3.4037 3.4339zm2.6037 2.5933c-1.4244 0-2.6037-1.159-2.6037-2.5933h-0.8c0 1.8826 1.544 3.3933 3.4037 3.3933zm13.537 0h-13.537v0.8h13.537zm2.6038-2.5933c0 1.4343-1.1794 2.5933-2.6038 2.5933v0.8c1.8597 0 3.4038-1.5107 3.4038-3.3933zm-2.6038-2.6339c1.4174 0 2.6038 1.1925 2.6038 2.6339h0.8c0-1.8757-1.5371-3.4339-3.4038-3.4339zm8.2505 25.452h-21.788v0.8h21.788zm2.6038-2.6338c0 1.4413-1.1864 2.6338-2.6038 2.6338v0.8c1.8667 0 3.4038-1.5581 3.4038-3.4338zm-2.6038-2.5934c1.4244 0 2.6038 1.1591 2.6038 2.5934h0.8c0-1.8826-1.5441-3.3934-3.4038-3.3934zm-21.788 0h21.788v-0.8h-21.788zm-2.6038 2.5934c0-1.4343 1.1794-2.5934 2.6038-2.5934v-0.8c-1.8597 0-3.4038 1.5108-3.4038 3.3934zm2.6038 2.6338c-1.4174 0-2.6038-1.1924-2.6038-2.6338h-0.8c0 1.8757 1.5371 3.4338 3.4038 3.4338z" fill="url(#paint3_linear_826_1703)" mask="url(#path-5-inside-1_826_1703)"/>
   <g filter="url(#filter2_bd_826_1703)">
    <mask id="path-7-inside-2_826_1703" fill="#ffffff">
     <path d="m75.144 49.518c2.7915 0.0283 6.6724 0.0404 9.9646 0.0283 1.6861-0.0041 2.5432-2.0388 1.3737-3.2644-4.2293-4.4415-11.795-12.39-16.124-16.937-1.1975-1.2581-3.2922-0.3924-3.2922 1.351v10.663c0 4.4739 3.6486 8.159 8.0782 8.159z"/>
    </mask>
    <path d="m75.144 49.518c2.7915 0.0283 6.6724 0.0404 9.9646 0.0283 1.6861-0.0041 2.5432-2.0388 1.3737-3.2644-4.2293-4.4415-11.795-12.39-16.124-16.937-1.1975-1.2581-3.2922-0.3924-3.2922 1.351v10.663c0 4.4739 3.6486 8.159 8.0782 8.159z" fill="url(#paint4_linear_826_1703)"/>
    <path d="m85.108 49.547-1e-3 -0.4h-5e-4zm1.3737-3.2644-0.2897 0.2758 3e-4 3e-4zm-16.124-16.937-0.2897 0.2758zm4.782 20.573c2.7935 0.0284 6.6762 0.0405 9.97 0.0284l-0.0029-0.8c-3.2905 0.0121-7.1695 0-9.959-0.0283zm9.9695 0.0284c2.044-0.0049 3.0698-2.4653 1.6622-3.9406l-0.5788 0.5523c0.9313 0.9761 0.243 2.5851-1.0853 2.5883zm1.6625-3.9403c-4.2322-4.4445-11.792-12.387-16.124-16.937l-0.5794 0.5517c4.3265 4.5436 11.898 12.498 16.124 16.937zm-16.124-16.937c-1.4564-1.53-3.9819-0.4633-3.9819 1.6268h0.8c0-1.3967 1.6638-2.0613 2.6025-1.0752zm-3.9819 1.6268v10.663h0.8v-10.663zm0 10.663c0 4.691 3.824 8.559 8.4782 8.559v-0.8c-4.2049 0-7.6782-3.5023-7.6782-7.759z" fill="url(#paint5_linear_826_1703)" mask="url(#path-7-inside-2_826_1703)"/>
   </g>
  </g>
 </g>
 <defs>
  <filter id="filter0_f_826_1703" x=".59961" y=".52832" width="78" height="84" color-interpolation-filters="sRGB" filterUnits="userSpaceOnUse">
   <feFlood flood-opacity="0" result="BackgroundImageFix"/>
   <feBlend in="SourceGraphic" in2="BackgroundImageFix" result="shape"/>
   <feGaussianBlur result="effect1_foregroundBlur_826_1703" stdDeviation="10.5"/>
  </filter>
  <filter id="filter1_b_826_1703" x="-1.3662" y="-1.2627" width="118.77" height="130.9" color-interpolation-filters="sRGB" filterUnits="userSpaceOnUse">
   <feFlood flood-opacity="0" result="BackgroundImageFix"/>
   <feGaussianBlur in="BackgroundImageFix" stdDeviation="12"/>
   <feComposite in2="SourceAlpha" operator="in" result="effect1_backgroundBlur_826_1703"/>
   <feBlend in="SourceGraphic" in2="effect1_backgroundBlur_826_1703" result="shape"/>
  </filter>
  <filter id="filter2_bd_826_1703" x="52.065" y="13.749" width="49.956" height="50.802" color-interpolation-filters="sRGB" filterUnits="userSpaceOnUse">
   <feFlood flood-opacity="0" result="BackgroundImageFix"/>
   <feGaussianBlur in="BackgroundImageFix" stdDeviation="7.5"/>
   <feComposite in2="SourceAlpha" operator="in" result="effect1_backgroundBlur_826_1703"/>
   <feColorMatrix in="SourceAlpha" result="hardAlpha" values="0 0 0 0 0 0 0 0 0 0 0 0 0 0 0 0 0 0 127 0"/>
   <feOffset dx="5" dy="5"/>
   <feGaussianBlur stdDeviation="5"/>
   <feColorMatrix values="0 0 0 0 0.577356 0 0 0 0 0.359375 0 0 0 0 0.9375 0 0 0 0.25 0"/>
   <feBlend in2="effect1_backgroundBlur_826_1703" result="effect2_dropShadow_826_1703"/>
   <feBlend in="SourceGraphic" in2="effect2_dropShadow_826_1703" result="shape"/>
  </filter>
  <linearGradient id="paint0_linear_826_1703" x1="57.957" x2="57.957" y1="5.3604" y2="86.264" gradientUnits="userSpaceOnUse">
   <stop stop-color="#BC94FF" offset="0"/>
   <stop stop-color="#9F66FF" offset="1"/>
  </linearGradient>
  <linearGradient id="paint1_linear_826_1703" x1="34.58" x2="87.303" y1="33.162" y2="88.666" gradientUnits="userSpaceOnUse">
   <stop stop-color="#fff" stop-opacity=".25" offset="0"/>
   <stop stop-color="#fff" stop-opacity="0" offset="1"/>
  </linearGradient>
  <linearGradient id="paint2_linear_826_1703" x1="66.997" x2="36.04" y1="60.214" y2="61.283" gradientUnits="userSpaceOnUse">
   <stop stop-color="#fff" offset="0"/>
   <stop stop-color="#fff" stop-opacity=".2" offset="1"/>
  </linearGradient>
  <linearGradient id="paint3_linear_826_1703" x1="45.597" x2="62.117" y1="58.532" y2="80.195" gradientUnits="userSpaceOnUse">
   <stop stop-color="#fff" stop-opacity=".25" offset="0"/>
   <stop stop-color="#fff" stop-opacity="0" offset="1"/>
  </linearGradient>
  <linearGradient id="paint4_linear_826_1703" x1="85.606" x2="63.376" y1="32.506" y2="33.201" gradientUnits="userSpaceOnUse">
   <stop stop-color="#fff" offset="0"/>
   <stop stop-color="#fff" stop-opacity=".2" offset="1"/>
  </linearGradient>
  <linearGradient id="paint5_linear_826_1703" x1="70.242" x2="83.617" y1="31.173" y2="47.064" gradientUnits="userSpaceOnUse">
   <stop stop-color="#fff" stop-opacity=".25" offset="0"/>
   <stop stop-color="#fff" stop-opacity="0" offset="1"/>
  </linearGradient>
 </defs>
</svg>
