<?xml version="1.0" encoding="UTF-8"?>
<svg width="120" height="120" fill="none" version="1.1" viewBox="0 0 120 120" xmlns="http://www.w3.org/2000/svg">
 <g id="Tick" transform="translate(9.8994 6.7471)">
  <g id="Bg">
   <path id="Path" d="m91.052 12.784-28.73-7.6983c-10.421-2.7924-18.124 1.6837-20.926 12.139l-9.4886 35.412c-2.8475 10.627 1.6219 18.218 12.043 21.01l28.73 7.6983c10.589 2.8374 18.084-1.5476 20.931-12.174l9.4883-35.412c2.802-10.456-1.459-18.137-12.049-20.975z" fill="url(#paint0_linear_826_697)"/>
   <g filter="url(#filter0_f_826_697)" opacity=".5">
    <path d="m83.546 22.481-19.574-5.245c-7.1001-1.9024-12.348 1.1472-14.257 8.2707l-6.4647 24.126c-1.94 7.2402 1.105 12.412 8.2052 14.314l19.574 5.2449c7.2146 1.9331 12.321-1.0544 14.261-8.2946l6.4647-24.126c1.9087-7.1235-0.9945-12.357-8.2091-14.29z" fill="#39b93a"/>
   </g>
  </g>
  <g id="icon">
   <g filter="url(#filter1_b_826_697)">
    <mask id="path-3-outside-1_826_697" x="0.461975" y="18.667" width="84" height="84" fill="#000000" maskUnits="userSpaceOnUse">
     <rect x=".46198" y="18.667" width="84" height="84" fill="#fff"/>
     <path d="m60.017 19.667h-35.402c-13.842 0-23.153 9.7183-23.153 24.173v33.361c0 14.414 9.31 24.133 23.153 24.133h35.402c13.842 0 23.112-9.7187 23.112-24.133v-33.361c0-14.455-9.2691-24.173-23.112-24.173z"/>
    </mask>
    <path d="m60.017 19.667h-35.402c-13.842 0-23.153 9.7183-23.153 24.173v33.361c0 14.414 9.31 24.133 23.153 24.133h35.402c13.842 0 23.112-9.7187 23.112-24.133v-33.361c0-14.455-9.2691-24.173-23.112-24.173z" fill="#72dc60" fill-opacity=".35"/>
    <path d="m60.017 20.667c0.5523 0 1-0.4477 1-1s-0.4477-1-1-1zm0-2c-0.5523 0-1 0.4477-1 1s0.4477 1 1 1zm0 0h-35.402v2h35.402zm-35.402 0c-7.1641 0-13.223 2.5203-17.489 6.9743-4.2626 4.4503-6.6631 10.755-6.6631 18.199h2c0-7.0107 2.2544-12.793 6.1075-16.816 3.8494-4.019 9.3665-6.3578 16.045-6.3578zm-24.153 25.173v33.361h2v-33.361zm0 33.361c0 7.4245 2.401 13.719 6.6636 18.164 4.2661 4.4485 10.325 6.9691 17.489 6.9691v-2c-6.6785 0-12.196-2.3392-16.045-6.3534-3.8531-4.0179-6.1071-9.7898-6.1071-16.779zm24.153 25.133h35.402v-2h-35.402zm35.402 0c7.1641 0 13.213-2.5208 17.469-6.97 4.2522-4.4453 6.6422-10.74 6.6422-18.163h-2c0 6.9908-2.2445 12.763-6.0875 16.78-3.8392 4.0134-9.3458 6.3525-16.024 6.3525zm24.112-25.133v-33.361h-2v33.361zm0-33.361c0-7.443-2.3895-13.747-6.6418-18.198-4.2562-4.4547-10.306-6.9752-17.47-6.9752v2c6.6783 0 12.185 2.3387 16.024 6.3568 3.8429 4.0223 6.0879 9.8046 6.0879 16.816z" fill="url(#paint1_linear_826_697)" mask="url(#path-3-outside-1_826_697)"/>
   </g>
   <g filter="url(#filter2_bd_826_697)">
    <mask id="path-5-inside-2_826_697" fill="#ffffff">
     <path d="m37.448 73.763c-0.9147 0-1.8294-0.3471-2.5276-1.0453l-9.6898-9.6898c-1.3965-1.3965-1.3965-3.6586 0-5.051 1.3965-1.3965 3.6546-1.4006 5.0511-0.0041l7.1663 7.1662 16.856-16.856c1.3965-1.3965 3.6545-1.3965 5.051 0s1.3965 3.6587 0 5.0552l-19.38 19.38c-0.6982 0.6982-1.6129 1.0453-2.5275 1.0453z"/>
    </mask>
    <path d="m37.448 73.763c-0.9147 0-1.8294-0.3471-2.5276-1.0453l-9.6898-9.6898c-1.3965-1.3965-1.3965-3.6586 0-5.051 1.3965-1.3965 3.6546-1.4006 5.0511-0.0041l7.1663 7.1662 16.856-16.856c1.3965-1.3965 3.6545-1.3965 5.051 0s1.3965 3.6587 0 5.0552l-19.38 19.38c-0.6982 0.6982-1.6129 1.0453-2.5275 1.0453z" fill="url(#paint2_linear_826_697)"/>
    <path d="m25.231 57.977 0.1412 0.1416 3e-4 -2e-4zm12.217 7.1621-0.1415 0.1415 0.1415 0.1414 0.1414-0.1414zm21.907-11.801-0.1414-0.1414zm-19.38 19.38 0.1415 0.1414zm-2.5275 0.8453c-0.8641 0-1.7271-0.3277-2.3862-0.9867l-0.2828 0.2828c0.7374 0.7375 1.7037 1.1039 2.669 1.1039zm-2.3862-0.9867-9.6897-9.6898-0.2829 0.2829 9.6898 9.6897zm-9.6897-9.6898c-1.3186-1.3185-1.3183-3.4539-3e-4 -4.768l-0.2824-0.2833c-1.475 1.4707-1.4747 3.8597-2e-4 5.3342zm0-4.7682c1.3186-1.3187 3.4501-1.3222 4.7682-0.0041l0.2828-0.2828c-1.4749-1.4749-3.8596-1.4703-5.3339 4e-3zm4.7682-0.0041 7.1662 7.1663 0.2829-0.2829-7.1663-7.1662zm7.4491 7.1663 16.856-16.856-0.2829-0.2828-16.856 16.856zm16.856-16.856c1.3184-1.3183 3.4498-1.3183 4.7682 0l0.2829-0.2828c-1.4746-1.4746-3.8594-1.4746-5.334 0zm4.7682 0c1.3184 1.3184 1.3184 3.454 0 4.7724l0.2829 0.2828c1.4746-1.4746 1.4746-3.8634 0-5.338zm0 4.7724-19.38 19.38 0.2829 0.2828 19.38-19.38zm-19.38 19.38c-0.659 0.659-1.5221 0.9867-2.3861 0.9867v0.4c0.9653 0 1.9315-0.3664 2.669-1.1039z" fill="url(#paint3_linear_826_697)" fill-opacity=".5" mask="url(#path-5-inside-2_826_697)"/>
   </g>
  </g>
 </g>
 <defs>
  <filter id="filter0_f_826_697" x="28.676" y="2.6816" width="77.65" height="81.085" color-interpolation-filters="sRGB" filterUnits="userSpaceOnUse">
   <feFlood flood-opacity="0" result="BackgroundImageFix"/>
   <feBlend in="SourceGraphic" in2="BackgroundImageFix" result="shape"/>
   <feGaussianBlur result="effect1_foregroundBlur_826_697" stdDeviation="7"/>
  </filter>
  <filter id="filter1_b_826_697" x="-23.538" y="-5.333" width="131.67" height="131.67" color-interpolation-filters="sRGB" filterUnits="userSpaceOnUse">
   <feFlood flood-opacity="0" result="BackgroundImageFix"/>
   <feGaussianBlur in="BackgroundImageFix" stdDeviation="12"/>
   <feComposite in2="SourceAlpha" operator="in" result="effect1_backgroundBlur_826_697"/>
   <feBlend in="SourceGraphic" in2="effect1_backgroundBlur_826_697" result="shape"/>
  </filter>
  <filter id="filter2_bd_826_697" x="9.1836" y="32.235" width="66.219" height="56.527" color-interpolation-filters="sRGB" filterUnits="userSpaceOnUse">
   <feFlood flood-opacity="0" result="BackgroundImageFix"/>
   <feGaussianBlur in="BackgroundImageFix" stdDeviation="7.5"/>
   <feComposite in2="SourceAlpha" operator="in" result="effect1_backgroundBlur_826_697"/>
   <feColorMatrix in="SourceAlpha" result="hardAlpha" values="0 0 0 0 0 0 0 0 0 0 0 0 0 0 0 0 0 0 127 0"/>
   <feOffset dx="5" dy="5"/>
   <feGaussianBlur stdDeviation="5"/>
   <feColorMatrix values="0 0 0 0 0.454902 0 0 0 0 0.870588 0 0 0 0 0.376471 0 0 0 0.5 0"/>
   <feBlend in2="effect1_backgroundBlur_826_697" result="effect2_dropShadow_826_697"/>
   <feBlend in="SourceGraphic" in2="effect2_dropShadow_826_697" result="shape"/>
  </filter>
  <linearGradient id="paint0_linear_826_697" x1="107.54" x2="44.882" y1="17.201" y2="55.548" gradientUnits="userSpaceOnUse">
   <stop stop-color="#9BF763" offset="0"/>
   <stop stop-color="#26AB5B" offset="1"/>
  </linearGradient>
  <linearGradient id="paint1_linear_826_697" x1="14.462" x2="66.557" y1="29.181" y2="93.702" gradientUnits="userSpaceOnUse">
   <stop stop-color="#fff" stop-opacity=".25" offset="0"/>
   <stop stop-color="#fff" stop-opacity="0" offset="1"/>
  </linearGradient>
  <linearGradient id="paint2_linear_826_697" x1="57.835" x2="17.527" y1="52.026" y2="53.82" gradientUnits="userSpaceOnUse">
   <stop stop-color="#fff" offset="0"/>
   <stop stop-color="#fff" stop-opacity=".2" offset="1"/>
  </linearGradient>
  <linearGradient id="paint3_linear_826_697" x1="28.085" x2="58.84" y1="56.134" y2="56.366" gradientUnits="userSpaceOnUse">
   <stop stop-color="#fff" offset="0"/>
   <stop stop-color="#fff" stop-opacity="0" offset="1"/>
  </linearGradient>
 </defs>
</svg>
