<?xml version="1.0" encoding="UTF-8"?>
<svg width="96" height="96" fill="none" version="1.1" viewBox="0 0 96 96" xmlns="http://www.w3.org/2000/svg">
 <g id="Actions/visibility_off" transform="translate(13.5 13.915)" clip-path="url(#clip0_785_2893)">
  <path id="Vector" d="m34.5 18.417c7.82 0 14.167 6.3467 14.167 14.167 0 1.445-0.2833 2.8333-0.68 4.1366l8.67 8.67c3.9384-3.485 7.055-7.8483 9.01-12.835-4.9016-12.41-17-21.222-31.167-21.222-3.5984 0-7.055 0.5666-10.313 1.615l6.1484 6.1483c1.3316-0.3967 2.72-0.68 4.165-0.68zm-26.322-9.4633c-1.105 1.105-1.105 2.89 0 3.995l5.5817 5.5816c-4.59 3.655-8.245 8.4717-10.427 14.053 4.9017 12.438 17 21.25 31.167 21.25 4.3066 0 8.415-0.85 12.212-2.3234l7.7067 7.7067c1.105 1.105 2.89 1.105 3.995 0s1.105-2.89 0-3.995l-46.212-46.268c-1.105-1.105-2.9183-1.105-4.0233 0zm26.322 37.797c-7.82 0-14.167-6.3466-14.167-14.167 0-2.1817 0.51-4.25 1.3883-6.0634l4.4484 4.4484c-0.085 0.51-0.17 1.0483-0.17 1.615 0 4.7033 3.7966 8.5 8.5 8.5 0.5666 0 1.0766-0.085 1.615-0.1984l4.4483 4.4484c-1.8417 0.9066-3.8817 1.4166-6.0633 1.4166zm8.415-15.102c-0.425-3.9667-3.5417-7.055-7.48-7.48z" fill="#9e9e9e"/>
 </g>
 <defs>
  <clipPath id="clip0_785_2893">
   <rect transform="translate(.5)" width="68" height="68" fill="#fff"/>
  </clipPath>
 </defs>
</svg>
